<?xml version="1.0" encoding="utf-8"?>
<!-- Generator: Adobe Illustrator 16.0.4, SVG Export Plug-In . SVG Version: 6.00 Build 0)  -->
<!DOCTYPE svg PUBLIC "-//W3C//DTD SVG 1.1//EN" "http://www.w3.org/Graphics/SVG/1.1/DTD/svg11.dtd">
<svg version="1.1" xmlns="http://www.w3.org/2000/svg" xmlns:xlink="http://www.w3.org/1999/xlink" x="0px" y="0px" width="32px"
	 height="40px" viewBox="0 0 32 40" enable-background="new 0 0 32 40" xml:space="preserve">
<g id="Layer_1">
	<g>
		<defs>
			<path id="SVGID_1_" d="M21.15,40l-5.787-14.824H11.25V40H8.133V8h7.682c1.056,0,2.07,0.144,3.053,0.43
				c0.979,0.288,1.855,0.762,2.62,1.423c0.766,0.663,1.384,1.536,1.854,2.621c0.464,1.086,0.699,2.412,0.699,3.979
				c0,1.355-0.177,2.523-0.522,3.503c-0.346,0.979-0.793,1.801-1.353,2.462c-0.56,0.664-1.177,1.175-1.854,1.538
				c-0.677,0.36-1.348,0.586-2.01,0.676L24.542,40H21.15z M20.967,16.611c0-1.141-0.154-2.093-0.471-2.86
				c-0.317-0.765-0.743-1.372-1.266-1.823c-0.527-0.45-1.131-0.765-1.808-0.944c-0.681-0.181-1.379-0.271-2.104-0.271H11.25v11.976
				h4.204c1.718,0,3.064-0.532,4.048-1.599C20.481,20.025,20.967,18.532,20.967,16.611z"/>
		</defs>
		<clipPath id="SVGID_2_">
			<use xlink:href="#SVGID_1_"  overflow="visible"/>
		</clipPath>
		
			<linearGradient id="SVGID_3_" gradientUnits="userSpaceOnUse" x1="46" y1="54" x2="-13.9991" y2="-5.9991" gradientTransform="matrix(0 1 -1 0 40 8.0005)">
			<stop  offset="0" style="stop-color:#FF02B8"/>
			<stop  offset="0.5" style="stop-color:#9F0AFF"/>
			<stop  offset="1" style="stop-color:#1202FF"/>
		</linearGradient>
		<rect x="-14" y="-6" clip-path="url(#SVGID_2_)" fill="url(#SVGID_3_)" width="60" height="60"/>
	</g>
</g>
<g id="Layer_2">
</g>
</svg>
