<?xml version="1.0" encoding="UTF-8"?>
<svg width="380px" height="76px" viewBox="0 0 380 76" version="1.1" xmlns="http://www.w3.org/2000/svg" xmlns:xlink="http://www.w3.org/1999/xlink">
    <!-- Generator: Sketch 51.3 (57544) - http://www.bohemiancoding.com/sketch -->
    <title>Slice 1</title>
    <desc>Created with Sketch.</desc>
    <defs></defs>
    <g id="Page-1" stroke="none" stroke-width="1" fill="none" fill-rule="evenodd">
        <g id="social-icons" fill="#FFFFFF">
            <path d="M342,0.0608 C321.0145,0.0608 304,16.39472 304,36.5408 C304,56.68688 321.0145,73.0208 342,73.0208 C362.9855,73.0208 380,56.68688 380,36.5408 C380,16.39472 362.9855,0.0608 342,0.0608 Z M364.135,21.28 L342,38.50464 L319.861833,21.28 L364.135,21.28 Z M364.166667,51.68 L319.833333,51.68 L319.833333,25.8248 L342,43.07072 L364.166667,25.82784 L364.166667,51.68 Z" id="Email" fill-rule="nonzero"></path>
            <g id="Instagram" transform="translate(151.000000, 0.000000)" fill-rule="nonzero">
                <path d="M32.779,37.909 C32.779,34.019 35.928,30.869 39.819,30.869 C43.718,30.869 46.879,34.019 46.879,37.909 C46.879,41.79 43.719,44.939 39.819,44.939 C35.929,44.939 32.779,41.79 32.779,37.909" id="Shape"></path>
                <path d="M53.299,28.72 C53.299,29.355 52.784,29.869 52.15,29.869 L48.45,29.869 C47.815,29.869 47.3,29.354 47.3,28.72 L47.3,25.02 C47.3,24.385 47.816,23.87 48.45,23.87 L52.15,23.87 C52.785,23.87 53.299,24.386 53.299,25.02 L53.299,28.72 Z" id="Shape"></path>
                <path d="M50.089,34.869 L54.299,34.869 L54.299,51.609 C54.299,52.25 54.159,52.869 53.529,52.869 L26.029,52.869 C25.399,52.869 25.299,52.25 25.299,51.609 L25.299,34.869 L29.469,34.869 C28.869,34.869 28.669,37.109 28.669,38.13 C28.669,44.26 33.679,49.15 39.819,49.15 C45.979,49.15 50.979,44.315 50.979,38.185 C50.979,37.165 50.829,34.869 50.089,34.869" id="Shape"></path>
                <path d="M38.829,0 C17.859,0 0.859,17 0.859,37.97 C0.859,58.93 17.859,75.93 38.829,75.93 C59.789,75.93 76.789,58.93 76.789,37.97 C76.789,17 59.789,0 38.829,0 Z M58.299,51.85 C58.299,54.25 56.159,55.87 53.759,55.87 L25.809,55.87 C23.4,55.87 21.299,54.251 21.299,51.85 L21.299,23.88 C21.299,21.48 23.4,19.869 25.809,19.869 L53.759,19.869 C56.159,19.869 58.299,21.479 58.299,23.88 L58.299,51.85 Z" id="Shape"></path>
            </g>
            <path d="M113.899,0 C92.93,0 75.93,17 75.93,37.97 C75.93,58.93 92.93,75.93 113.9,75.93 C134.86,75.93 151.86,58.93 151.86,37.97 C151.859,17 134.859,0 113.899,0 M128.329,29.92 C128.34,30.26 128.35,30.6 128.35,30.94 C128.35,41.35 120.62,53.36 106.49,53.36 C102.15,53.36 98.11,52.05 94.71,49.82 C95.311,49.89 95.921,49.93 96.54,49.93 C100.141,49.93 103.46,48.67 106.091,46.56 C102.721,46.49 99.891,44.22 98.91,41.09 C99.381,41.18 99.86,41.23 100.35,41.23 C101.06,41.23 101.82,41.13 102.459,40.95 C98.939,40.23 96.369,37.041 96.369,33.221 L96.369,33.131 C97.369,33.711 98.519,34.07 99.779,34.11 C97.709,32.7 96.319,30.28 96.319,27.55 C96.319,26.11 96.679,24.75 97.34,23.59 C101.13,28.36 106.779,31.489 113.17,31.819 C113.029,31.239 112.965,30.639 112.965,30.029 C112.965,25.679 116.402,22.149 120.642,22.149 C122.852,22.149 124.851,23.099 126.25,24.629 C128,24.278 129.641,23.629 131.131,22.719 C130.561,24.559 129.34,26.109 127.749,27.079 C129.31,26.889 130.789,26.469 132.159,25.839 C131.14,27.42 129.829,28.81 128.329,29.92" id="Twitter" fill-rule="nonzero"></path>
            <path d="M37.97,0 C17,0 0,17 0,37.97 C0,58.93 17,75.93 37.97,75.93 C58.93,75.93 75.93,58.93 75.93,37.97 C75.93,17 58.93,0 37.97,0 Z M28.439,54.869 L21.439,54.869 L21.439,31.869 L28.439,31.869 L28.439,54.869 Z M24.529,29.869 L24.479,29.869 C21.87,29.869 20.189,27.88 20.189,25.67 C20.189,23.42 21.919,21.59 24.58,21.59 C27.229,21.59 28.859,23.48 28.92,25.73 C28.92,27.939 27.229,29.869 24.529,29.869 Z M57.439,54.869 L48.439,54.869 L48.439,43.22 C48.439,40.13 47.41,38.03 44.599,38.03 C42.459,38.03 41.219,39.45 40.66,40.82 C40.449,41.31 40.439,41.99 40.439,42.68 L40.439,54.869 L32.699,54.869 C32.699,54.869 32.8,33.869 32.699,31.869 L40.439,31.869 L40.439,35.8 C41.439,34.239 43.839,32.01 47.96,32.01 C53.069,32.01 57.439,35.28 57.439,42.34 L57.439,54.869 Z" id="LinkedIn" fill-rule="nonzero"></path>
            <path d="M288.084333,55.5971667 L288.084333,54.853 L284.626333,51.4583333 C284.322333,51.2271667 284.170333,50.844 284.233667,50.4671667 L284.233667,25.5328333 C284.170333,25.156 284.322333,24.7728333 284.626333,24.5416667 L288.166667,21.147 L288.166667,20.4028333 L275.914833,20.4028333 L267.181167,42.1895 L257.244167,20.4028333 L244.390667,20.4028333 L244.390667,21.147 L248.532667,26.1345 C248.938,26.4986667 249.147,27.037 249.09,27.5816667 L249.09,47.177 C249.210333,47.8831667 248.988667,48.6051667 248.4915,49.1213333 L243.833333,54.7706667 L243.833333,55.5148333 L257.038333,55.5148333 L257.038333,54.7706667 L252.380167,49.1213333 C251.879833,48.6051667 251.642333,47.8895 251.7405,47.177 L251.7405,30.229 L263.3305,55.5148333 L264.676333,55.5148333 L274.629167,30.229 L274.629167,50.3848333 C274.629167,50.9231667 274.629167,51.0245 274.277667,51.376 L270.699333,54.853 L270.699333,55.5971667 L288.084333,55.5971667 Z M266,0 C245.017667,0 228,17.0113333 228,38 C228,58.9855 245.017667,76 266,76 C286.9855,76 304,58.9855 304,38 C304,17.0113333 286.9855,0 266,0 Z" id="Medium"></path>
        </g>
    </g>
</svg>