<?xml version="1.0" encoding="utf-8"?>
<!-- Generator: Adobe Illustrator 16.0.4, SVG Export Plug-In . SVG Version: 6.00 Build 0)  -->
<!DOCTYPE svg PUBLIC "-//W3C//DTD SVG 1.1//EN" "http://www.w3.org/Graphics/SVG/1.1/DTD/svg11.dtd">
<svg version="1.1" id="Layer_1" xmlns="http://www.w3.org/2000/svg" xmlns:xlink="http://www.w3.org/1999/xlink" x="0px" y="0px"
	 width="332px" height="76px" viewBox="0 0 332 76" enable-background="new 0 0 332 76" xml:space="preserve">
<path fill="#FFFFFF" d="M287.92,37.909c0-3.89,3.149-7.04,7.04-7.04c3.899,0,7.06,3.15,7.06,7.04c0,3.881-3.16,7.03-7.06,7.03
	C291.069,44.939,287.92,41.79,287.92,37.909"/>
<path fill="#FFFFFF" d="M308.439,28.72c0,0.635-0.515,1.149-1.149,1.149h-3.7c-0.635,0-1.15-0.515-1.15-1.149v-3.7
	c0-0.635,0.516-1.15,1.15-1.15h3.7c0.635,0,1.149,0.516,1.149,1.15V28.72z"/>
<path fill="#FFFFFF" d="M305.229,34.869h4.21v16.74c0,0.641-0.14,1.26-0.77,1.26h-27.5c-0.63,0-0.73-0.619-0.73-1.26v-16.74h4.17
	c-0.6,0-0.8,2.24-0.8,3.261c0,6.13,5.01,11.02,11.15,11.02c6.16,0,11.16-4.835,11.16-10.965
	C306.12,37.165,305.97,34.869,305.229,34.869"/>
<path fill="#FFFFFF" d="M293.97,0C273,0,256,17,256,37.97c0,20.96,17,37.96,37.97,37.96c20.96,0,37.96-17,37.96-37.96
	C331.93,17,314.93,0,293.97,0 M313.439,51.85c0,2.4-2.14,4.02-4.54,4.02h-27.95c-2.409,0-4.51-1.619-4.51-4.02V23.88
	c0-2.4,2.101-4.011,4.51-4.011h27.95c2.4,0,4.54,1.61,4.54,4.011V51.85z"/>
<path fill="#FFFFFF" d="M166.97,0C146,0,129,17,129,37.97c0,20.96,17,37.96,37.97,37.96c20.96,0,37.96-17,37.96-37.96
	C204.93,17,187.93,0,166.97,0 M181.399,29.92c0.011,0.34,0.021,0.68,0.021,1.02c0,10.41-7.73,22.42-21.86,22.42
	c-4.34,0-8.38-1.31-11.78-3.54c0.601,0.07,1.211,0.11,1.83,0.11c3.601,0,6.92-1.26,9.551-3.37c-3.37-0.07-6.2-2.34-7.181-5.47
	c0.471,0.09,0.95,0.14,1.44,0.14c0.71,0,1.47-0.1,2.109-0.28c-3.52-0.72-6.09-3.909-6.09-7.729v-0.09c1,0.58,2.15,0.939,3.41,0.979
	c-2.07-1.41-3.46-3.83-3.46-6.56c0-1.44,0.36-2.8,1.021-3.96c3.79,4.77,9.439,7.899,15.83,8.229c-0.141-0.58-0.205-1.18-0.205-1.79
	c0-4.35,3.437-7.88,7.677-7.88c2.21,0,4.209,0.95,5.608,2.48c1.75-0.351,3.391-1,4.881-1.91c-0.57,1.84-1.791,3.39-3.382,4.36
	c1.561-0.19,3.04-0.61,4.41-1.24C184.21,27.42,182.899,28.81,181.399,29.92"/>
<path fill="#FFFFFF" d="M37.97,0C17,0,0,17,0,37.97c0,20.96,17,37.96,37.97,37.96c20.96,0,37.96-17,37.96-37.96
	C75.93,17,58.93,0,37.97,0 M28.439,54.869h-7v-23h7V54.869z M24.529,29.869h-0.05c-2.609,0-4.29-1.989-4.29-4.199
	c0-2.25,1.73-4.08,4.391-4.08c2.649,0,4.279,1.89,4.34,4.14C28.92,27.939,27.229,29.869,24.529,29.869 M57.439,54.869h-9V43.22
	c0-3.09-1.029-5.19-3.84-5.19c-2.14,0-3.38,1.42-3.939,2.79c-0.211,0.49-0.221,1.17-0.221,1.86v12.189h-7.74c0,0,0.101-21,0-23h7.74
	V35.8c1-1.561,3.4-3.79,7.521-3.79c5.109,0,9.479,3.27,9.479,10.33V54.869z"/>
</svg>
